<svg xmlns="http://www.w3.org/2000/svg" width="15" height="16" viewBox="0 0 15 16">
  <path id="comentar" d="M136.317,56.247h-.01a1.588,1.588,0,0,1-1.127-.476l-1.043-1.093a1.214,1.214,0,0,0-.871-.373h-1.939a4.692,4.692,0,0,1-4.733-4.642V44.9a4.7,4.7,0,0,1,4.686-4.649h5.634a4.7,4.7,0,0,1,4.679,4.64v4.767a4.583,4.583,0,0,1-1.757,3.614,1.952,1.952,0,0,0-.231.212l-.521.582-1.622,1.7a1.6,1.6,0,0,1-1.145.484m-3.051-3.4a2.675,2.675,0,0,1,1.923.824l1.033,1.084c.027.027.05.027.094.034a.139.139,0,0,0,.1-.04l2.11-2.248a3.4,3.4,0,0,1,.411-.379,3.13,3.13,0,0,0,1.2-2.467V44.9a3.226,3.226,0,0,0-3.269-3.19h-5.579a3.239,3.239,0,0,0-3.239,3.2V49.65a3.233,3.233,0,0,0,3.267,3.2Zm-5.217-3.191h0Z" transform="translate(-126.592 -40.247)" fill="#211a16"/>
</svg>
