<svg xmlns="http://www.w3.org/2000/svg" width="17" height="16" viewBox="0 0 17 16">
  <path id="compartilhar" d="M14.942,0H2.076A2.108,2.108,0,0,0,.589.631,2.029,2.029,0,0,0,0,2.091,2.061,2.061,0,0,0,.635,3.534L5.24,7.95l.009.036,1.26,6.355a2.1,2.1,0,0,0,2.439,1.623,2.048,2.048,0,0,0,1.433-1.055L16.755,3.029A2.007,2.007,0,0,0,17,2.064,2.06,2.06,0,0,0,14.942,0M5.993,6.706l-.063-.054L1.623,2.515a.639.639,0,0,1-.009-.91.565.565,0,0,1,.272-.162l-.018-.036H14.606ZM9.13,14.242a.641.641,0,0,1-.453.334.561.561,0,0,1-.127.009.657.657,0,0,1-.363-.108.583.583,0,0,1-.272-.406L6.691,7.941,15.377,2.6Z" transform="translate(0)" fill="#211a16"/>
</svg>
