<?xml version="1.0" standalone="no"?>
<!DOCTYPE svg PUBLIC "-//W3C//DTD SVG 20010904//EN"
 "http://www.w3.org/TR/2001/REC-SVG-20010904/DTD/svg10.dtd">
<svg version="1.0" xmlns="http://www.w3.org/2000/svg"
 width="17.000000pt" height="16.000000pt" viewBox="0 0 17.000000 16.000000"
 preserveAspectRatio="xMidYMid meet">

<g transform="translate(0.000000,16.000000) scale(0.100000,-0.100000)"
fill="#000000" stroke="none">
<path d="M6 142 c-3 -5 8 -22 24 -37 17 -16 30 -37 30 -46 0 -27 11 -49 24
-49 12 0 76 109 76 129 0 13 -146 16 -154 3z m124 -6 c0 -2 -16 -14 -36 -25
-34 -21 -38 -21 -55 -5 -30 27 -23 34 36 34 30 0 55 -2 55 -4z m10 -22 c0 -16
-53 -93 -61 -88 -20 12 -9 59 19 76 28 18 42 22 42 12z"/>
</g>
</svg>
