<svg xmlns="http://www.w3.org/2000/svg" width="22" height="20" viewBox="0 0 22 20">
  <path id="digital" d="M20.1.593,19.9.538A14.256,14.256,0,0,0,16,0a8.326,8.326,0,0,0-4.121,1.132,4.371,4.371,0,0,0-.447.31A1.248,1.248,0,0,1,11,1.7a1.231,1.231,0,0,1-.431-.262,4.425,4.425,0,0,0-.448-.31A8.321,8.321,0,0,0,6,0,14.256,14.256,0,0,0,2.1.538L1.91.591C1.156.8,0,1.117,0,2V15a1,1,0,0,0,.475.851c.469.29,1.087.037,1.636-.188a5.263,5.263,0,0,1,.539-.2A12.247,12.247,0,0,1,6,15a5.411,5.411,0,0,1,2.913.851,6.548,6.548,0,0,1,.553.4A2.682,2.682,0,0,0,11,17a2.665,2.665,0,0,0,1.531-.746,6.4,6.4,0,0,1,.556-.4A5.411,5.411,0,0,1,16,15a12.246,12.246,0,0,1,3.35.462,5.2,5.2,0,0,1,.554.21c.54.228,1.135.48,1.621.179A1,1,0,0,0,22,15V2C22,1.116,20.855.8,20.1.593M10,14.171A7.415,7.415,0,0,0,6,13a14.361,14.361,0,0,0-3.355.4.5.5,0,0,1-.123.015A.519.519,0,0,1,2,12.9V3.022a.483.483,0,0,1,.333-.465A12.183,12.183,0,0,1,6,2a6.331,6.331,0,0,1,3.129.869A6.918,6.918,0,0,1,10,3.456ZM20,12.9a.519.519,0,0,1-.522.516.551.551,0,0,1-.124-.016A14.354,14.354,0,0,0,16,13a7.415,7.415,0,0,0-4,1.171V3.456a6.918,6.918,0,0,1,.871-.587A6.331,6.331,0,0,1,16,2a12.183,12.183,0,0,1,3.667.557A.483.483,0,0,1,20,3.022Zm.9,5.486a1,1,0,0,1-1.313.525,12.671,12.671,0,0,0-1.226-.459A8.312,8.312,0,0,0,16,18a4.1,4.1,0,0,0-1.993.884A5.7,5.7,0,0,1,11,20a5.72,5.72,0,0,1-3.013-1.117A4.115,4.115,0,0,0,6,18a8.3,8.3,0,0,0-2.357.452,12.534,12.534,0,0,0-1.234.461,1,1,0,0,1-1.322-.5h0a1,1,0,0,1,.5-1.321,14.683,14.683,0,0,1,1.441-.539A10.254,10.254,0,0,1,6,16a5.513,5.513,0,0,1,2.885,1.085l.11.069A4.005,4.005,0,0,0,11,18a3.989,3.989,0,0,0,2-.846l.105-.067A5.515,5.515,0,0,1,16,16a10.225,10.225,0,0,1,2.973.548,14.581,14.581,0,0,1,1.4.525,1,1,0,0,1,.525,1.313" transform="translate(0 0)" fill="#0f0f0f"/>
</svg>
