<svg xmlns="http://www.w3.org/2000/svg" width="26" height="22" viewBox="0 0 26 22">
  <path id="home" d="M67.919,9.017a.283.283,0,0,1-.045-.041l-3.1-2.244h-.006l-.16-.1L57.605,1.561a4.046,4.046,0,0,0-4.656,0L42.655,9.01a.962.962,0,0,0-.23,1.269.857.857,0,0,0,.549.389.8.8,0,0,0,.639-.136l1.916-1.4v8a5.7,5.7,0,0,0,5.537,5.7h8.424a5.7,5.7,0,0,0,5.543-5.7V9.14l1.916,1.371a.839.839,0,0,0,1.175-.232,1,1,0,0,0,.147-.675.933.933,0,0,0-.351-.587M57.663,21H52.9V18.738a2.45,2.45,0,0,1,.728-1.692,2.113,2.113,0,0,1,1.629-.648h.064a.292.292,0,0,1,.077-.007,2.354,2.354,0,0,1,2.267,2.347Zm5.665-3.95A3.959,3.959,0,0,1,59.534,21h-.166V18.656a4.08,4.08,0,0,0-3.979-4.079h-.07a1.389,1.389,0,0,0-.153-.014,4.1,4.1,0,0,0-3.972,4.093V21h-.16a3.978,3.978,0,0,1-3.806-3.943V7.9l6.661-4.816a2.433,2.433,0,0,1,2.791.007L63.328,7.9Z" transform="translate(-42.28 -0.824)"/>
</svg>
