<svg xmlns="http://www.w3.org/2000/svg" width="12" height="14" viewBox="0 0 12 14">
  <path id="localização" d="M6,0A6.187,6.187,0,0,0,0,6.36a7.211,7.211,0,0,0,1.534,4.389,11.151,11.151,0,0,0,3.632,3.038,1.741,1.741,0,0,0,1.669,0,11.139,11.139,0,0,0,3.631-3.038A7.211,7.211,0,0,0,12,6.36,6.187,6.187,0,0,0,6,0m.257,12.58a.545.545,0,0,1-.511,0C2.95,11.069,1.281,8.743,1.281,6.36A4.874,4.874,0,0,1,6,1.355a4.875,4.875,0,0,1,4.72,5c0,2.384-1.669,4.709-4.465,6.221M6,3.551A2.736,2.736,0,0,0,3.353,6.36,2.732,2.732,0,0,0,6,9.168,2.732,2.732,0,0,0,8.652,6.36,2.732,2.732,0,0,0,6,3.551M6,7.813A1.416,1.416,0,0,1,4.631,6.36,1.414,1.414,0,0,1,6,4.906,1.414,1.414,0,0,1,7.374,6.36,1.414,1.414,0,0,1,6,7.813" fill="#707070"/>
</svg>
