<svg xmlns="http://www.w3.org/2000/svg" width="108" height="62" viewBox="0 0 108 62">
  <path id="marker" d="M49.747,59.461c3.651,0,7.293-.208,10.92-.535a105.717,105.717,0,0,0,20.272-3.905,62.878,62.878,0,0,0,9.6-3.566,33.274,33.274,0,0,0,8.354-5.507c.244-.231.484-.466.712-.713l.646-.766-.043.038a20.071,20.071,0,0,0,3.3-4.852,19.315,19.315,0,0,0,1.691-5.6,23.9,23.9,0,0,0-1.467-11.68,25.652,25.652,0,0,0-3.329-6.042,28.613,28.613,0,0,0-4.816-5A37.658,37.658,0,0,0,83.2,4.781,52.48,52.48,0,0,0,69.176,2.428a96.688,96.688,0,0,0-14.412.632c-3.008.308-8.1,1.14-8.145.266-.019-.454.8-.955,2.3-1.433A34.372,34.372,0,0,1,55.244.664,81.851,81.851,0,0,1,74.781.526a52.109,52.109,0,0,1,9.6,2.137,46.661,46.661,0,0,1,4.587,1.783c.755.32,1.479.709,2.218,1.067.364.189.72.4,1.08.593s.72.4,1.064.616a31.247,31.247,0,0,1,10.4,9.924,27.447,27.447,0,0,1,4.262,13.763,23.159,23.159,0,0,1-.918,7.255,21.665,21.665,0,0,1-3.263,6.577A25.838,25.838,0,0,1,98.7,49.456a37.988,37.988,0,0,1-6.116,3.84,65.663,65.663,0,0,1-11.973,4.529A107.271,107.271,0,0,1,68.184,60.6a110.419,110.419,0,0,1-25.4,1.124,111.059,111.059,0,0,1-11.876-1.483,60.887,60.887,0,0,1-11.621-3.273,44.026,44.026,0,0,1-5.5-2.619,34.3,34.3,0,0,1-5.079-3.462,26.487,26.487,0,0,1-4.32-4.471,22.483,22.483,0,0,1-3.05-5.488A20.444,20.444,0,0,1,.3,30.2a25.167,25.167,0,0,1,4.041-9.87,30.1,30.1,0,0,1,7.4-7.567,29.48,29.48,0,0,1,4.587-2.684c.4-.185.813-.362,1.219-.535l1.239-.462c.817-.331,1.668-.555,2.508-.816a67.372,67.372,0,0,1,9.786-1.76l-.054-.012c.48.039.964.062,1.459.069s.991.035,1.5.05c1.01,0,2.033.065,3.058.1a21.039,21.039,0,0,1,5.806,1.02h0l.941.2.933.231,1.843.435a21.148,21.148,0,0,1,5.214,1.671c.747.435.538.712-.507.9-.461.081-.1.5-1.421.231,0,0-.093-.046-.093-.046l.031.027c-1.9-.212-3.921-.693-6.012-1.124a57.663,57.663,0,0,0-6.306-1.071A41.848,41.848,0,0,0,22.4,10.257l-1.8.558c-.6.193-1.177.443-1.765.658a24.777,24.777,0,0,0-3.36,1.629A27.645,27.645,0,0,0,9.6,17.7a26.5,26.5,0,0,0-4.4,5.992,21.723,21.723,0,0,0-2.373,6.959,18.206,18.206,0,0,0,.3,7.248,19.415,19.415,0,0,0,3.1,6.6,25.873,25.873,0,0,0,6.612,6.247,41.216,41.216,0,0,0,8.265,4.22,57.051,57.051,0,0,0,9,2.6l1.154.223,1.165.2c.778.127,1.552.269,2.33.381,1.56.208,3.12.432,4.688.57,3.43.335,6.879.435,10.371.524Z" fill="#ff9200"/>
</svg>
