<svg xmlns="http://www.w3.org/2000/svg" width="24" height="22" viewBox="0 0 24 22">
  <path id="mídia" d="M60.865,84.119l-3.82-2.453a1.717,1.717,0,0,0-1.037-.224,1.852,1.852,0,0,0-1.631,1.985v4.739a1.908,1.908,0,0,0,.218,1.024,1.806,1.806,0,0,0,1.075.9,1.711,1.711,0,0,0,.5.075,1.834,1.834,0,0,0,.914-.255l3.786-2.433a2.011,2.011,0,0,0,.506-.526,2.079,2.079,0,0,0,.31-1.524,2.028,2.028,0,0,0-.82-1.305m-.974,1.808-3.731,2.366,0-4.9-.019-.128,3.722,2.391a.174.174,0,0,1,.063.11.228.228,0,0,1-.039.163m8.632-8.111a3.675,3.675,0,0,0-1.7-1.068,3.441,3.441,0,0,0-.59-1.848,3.234,3.234,0,0,0-2.107-1.387,3.181,3.181,0,0,0-.564-.05H51.424a3.317,3.317,0,0,0-3.253,3.283,3.669,3.669,0,0,0-1.708,1.07c-1.342,1.5-1.057,3.6-.539,7.4l.474,3.454c.406,2.991.631,4.638,1.894,5.723,1.245,1.068,2.826,1.068,5.978,1.068h6.444c3.154,0,4.737,0,5.982-1.068,1.262-1.085,1.487-2.732,1.894-5.722l.47-3.454c.518-3.8.8-5.9-.539-7.4m-17.1-2.5H63.561a1.353,1.353,0,0,1,.256.023,1.458,1.458,0,0,1,.953.628,1.538,1.538,0,0,1,.206.46c-1.021-.082-2.257-.083-3.787-.083H53.795c-1.528,0-2.764,0-3.784.083a1.483,1.483,0,0,1,1.413-1.11m15.869,9.645-.469,3.454c-.381,2.8-.564,3.954-1.266,4.556-.749.643-2.117.643-4.843.643H54.27c-2.723,0-4.09,0-4.838-.643-.7-.6-.886-1.762-1.266-4.557l-.474-3.454c-.487-3.576-.655-5.061.081-5.884.788-.882,2.647-.882,6.021-.882h7.395c3.375,0,5.234,0,6.023.882.736.823.568,2.308.081,5.885" transform="translate(-45.493 -73.462)"/>
</svg>
