<svg xmlns="http://www.w3.org/2000/svg" width="16" height="16" viewBox="0 0 16 16">
  <path id="play" d="M105.863,11.324a7.994,7.994,0,0,1-7.713,5.927h0a8,8,0,0,1-6.941-12,.582.582,0,1,1,1.008.582,6.829,6.829,0,1,0,2.5-2.5.582.582,0,1,1-.582-1.008,8,8,0,0,1,11.726,9M95.732,10.2c-.02-.349-.031-.665-.031-.941s.01-.583.03-.939c.073-1.259.113-1.951.685-2.382.672-.5,1.346-.095,2.2.425.231.141.438.275.615.4s.352.256.588.446h0l.089.073c.846.691,1.406,1.148,1.406,1.979s-.559,1.287-1.4,1.977c-.283.229-.492.389-.679.52s-.379.256-.614.4a3.305,3.305,0,0,1-1.544.655,1.066,1.066,0,0,1-.658-.229c-.573-.43-.613-1.122-.685-2.38m1.133-.941c0,.26.01.553.029.872a3.845,3.845,0,0,0,.222,1.518h0a5,5,0,0,0,.869-.473l.028-.017c.218-.133.4-.249.548-.355.207-.145.424-.317.609-.467.728-.594.98-.814.98-1.079s-.239-.474-.978-1.077l-.067-.055c-.218-.177-.387-.3-.54-.411s-.339-.229-.552-.358a3.97,3.97,0,0,0-.916-.48V6.757l0,.116a4.346,4.346,0,0,0-.2,1.507c-.02.35-.029.635-.029.873" transform="translate(-90.139 -1.251)" fill="#211a16"/>
</svg>
