<svg xmlns="http://www.w3.org/2000/svg" width="25" height="25" viewBox="0 0 25 25">
  <path id="promoções" d="M15.841,13.083l-5.095,5.093a1.115,1.115,0,0,1-1.554,0,1.127,1.127,0,0,1-.344-.777,1.157,1.157,0,0,1,.319-.8l5.094-5.08a1.091,1.091,0,0,1,1.541,0,1.1,1.1,0,0,1,.344.777,1.14,1.14,0,0,1-.306.789m-5.884.484a1.273,1.273,0,1,0-1.274-1.273,1.277,1.277,0,0,0,1.274,1.273m5.09,2.549a1.273,1.273,0,1,0,1.273,1.273,1.273,1.273,0,0,0-1.273-1.273m9.857-.468A3.445,3.445,0,0,1,23.351,17.8l-1.495.906.405,1.7a3.472,3.472,0,0,1-1.561,3.77,3.454,3.454,0,0,1-2.622.427l-1.7-.42-.906,1.495a3.718,3.718,0,0,1-1.149,1.149,3.493,3.493,0,0,1-4.787-1.149l-.906-1.495-1.686.42a3.792,3.792,0,0,1-1.628,0,3.488,3.488,0,0,1-2.578-4.2l.412-1.7L1.662,17.8A3.356,3.356,0,0,1,.506,16.656a3.486,3.486,0,0,1,1.156-4.779l1.488-.906-.412-1.7a3.54,3.54,0,0,1,0-1.62A3.483,3.483,0,0,1,4.3,5.494a3.555,3.555,0,0,1,2.637-.42l1.694.42L9.535,4a3.617,3.617,0,0,1,1.142-1.149A3.5,3.5,0,0,1,15.471,4l.906,1.495,1.7-.42a3.511,3.511,0,0,1,1.613,0,3.485,3.485,0,0,1,2.57,4.2l-.405,1.7,1.495.906a3.423,3.423,0,0,1,1.127,1.149h.007a3.444,3.444,0,0,1,.42,2.621m-1.819-1.185a1.615,1.615,0,0,0-.714-1L20.3,12.2a.912.912,0,0,1-.412-1.009l.56-2.356a1.618,1.618,0,0,0,0-.751A1.607,1.607,0,0,0,18.5,6.893l-2.357.567a.948.948,0,0,1-1.009-.42L13.873,4.979a1.545,1.545,0,0,0-.53-.537,1.673,1.673,0,0,0-1.215-.191,1.591,1.591,0,0,0-1,.729L9.866,7.04a.958.958,0,0,1-1.024.42L6.5,6.893a1.5,1.5,0,0,0-.766,0A1.605,1.605,0,0,0,4.549,8.837l.56,2.356a.943.943,0,0,1-.42,1.009L2.627,13.476a1.439,1.439,0,0,0-.516.515,1.536,1.536,0,0,0-.2,1.222,1.631,1.631,0,0,0,.714,1l2.062,1.266a.964.964,0,0,1,.427,1.009l-.567,2.356a1.618,1.618,0,0,0,0,.751A1.6,1.6,0,0,0,6.5,22.782l2.342-.56a.969.969,0,0,1,1.024.42L11.126,24.7a1.684,1.684,0,0,0,.516.53,1.7,1.7,0,0,0,.847.243,1.589,1.589,0,0,0,.376-.044,1.561,1.561,0,0,0,1-.729l1.267-2.062a.95.95,0,0,1,1.009-.42l2.349.56a1.381,1.381,0,0,0,.773,0,1.605,1.605,0,0,0,1.186-1.936l-.56-2.356a.912.912,0,0,1,.412-1.009l2.069-1.266a1.548,1.548,0,0,0,.516-.53,1.566,1.566,0,0,0,.2-1.222" transform="translate(0 -2.34)"/>
</svg>
