<svg xmlns="http://www.w3.org/2000/svg" xmlns:xlink="http://www.w3.org/1999/xlink" width="105" height="82" viewBox="0 0 105 82">
  <defs>
    <linearGradient id="linear-gradient" x1="1.077" y1="0.485" x2="-0.024" y2="0.572" gradientUnits="objectBoundingBox">
      <stop offset="0" stop-color="#ff0"/>
      <stop offset="1" stop-color="#ffc300"/>
    </linearGradient>
  </defs>
  <g id="promoções-ilustração" transform="translate(-49.901 -28.09)">
    <path id="Caminho_2470" data-name="Caminho 2470" d="M148.043,185.7l-4.153,6.655,9.387,6.478,9.809-9.194s-5.184-13.493-6.655-14.464S148.043,185.7,148.043,185.7Z" transform="translate(-62.973 -98.58)" fill="#fff"/>
    <path id="Caminho_2471" data-name="Caminho 2471" d="M152.945,198.726a.156.156,0,0,1-.093-.03l-9.387-6.478a.166.166,0,0,1-.047-.226l4.149-6.655c.26-.426,6.176-10.182,8.179-10.628a.572.572,0,0,1,.456.067c1.487,1,6.5,13.992,6.708,14.544a.166.166,0,0,1-.043.18l-9.809,9.184a.156.156,0,0,1-.113.043Zm-9.16-6.691,9.144,6.322,9.633-9.037c-1.467-3.813-5.387-13.513-6.538-14.281a.246.246,0,0,0-.2-.02c-1.551.333-6.276,7.683-7.986,10.478h0Zm3.926-6.622Z" transform="translate(-62.641 -98.295)" fill="#211a16"/>
    <path id="Caminho_2472" data-name="Caminho 2472" d="M141.3,146.019s-.562,4.405,1.311,6.372,8.245,2.529,8.621,3.184,7.32,18.174,8.335,19.206,5.247-.562,8.432-3.56c0,0-7.26-16.208-7.517-17.612s2.083-7.4,2.083-10.119Z" transform="translate(-61.21 -77.361)" fill="#fff"/>
    <path id="Caminho_2473" data-name="Caminho 2473" d="M160.248,174.94a1.554,1.554,0,0,1-1.131-.366c-.692-.692-3.66-7.863-6.655-15.146-.9-2.186-1.6-3.91-1.707-4.093a8.642,8.642,0,0,0-2.329-.709c-2.14-.5-5.068-1.188-6.265-2.446-1.907-2-1.381-6.322-1.358-6.505a.163.163,0,0,1,.146-.143L162.211,143a.163.163,0,0,1,.133.043.17.17,0,0,1,.053.123,27.387,27.387,0,0,1-1.2,5.816,16.452,16.452,0,0,0-.882,4.272c.253,1.368,7.433,17.412,7.507,17.575a.17.17,0,0,1-.037.19C165.322,173.327,162.081,174.94,160.248,174.94Zm-19.133-29.095c-.07.732-.333,4.405,1.281,6.106,1.131,1.188,3.993,1.86,6.1,2.352,1.6.376,2.372.569,2.542.865.11.193.665,1.551,1.727,4.133,2.056,5.008,5.879,14.334,6.585,15.04.925.925,4.991-.6,8.112-3.484-.685-1.537-7.23-16.178-7.48-17.542a15.19,15.19,0,0,1,.888-4.419,28.655,28.655,0,0,0,1.188-5.543Z" transform="translate(-60.874 -77.148)" fill="#211a16"/>
    <path id="Caminho_2474" data-name="Caminho 2474" d="M198.466,191.216a.17.17,0,0,1-.156-.107l-7.653-19.359a.166.166,0,0,1,.093-.216.163.163,0,0,1,.216.093l7.653,19.362a.16.16,0,0,1-.093.213A.13.13,0,0,1,198.466,191.216Z" transform="translate(-94.255 -96.068)" fill="#ffc400"/>
    <path id="Caminho_2475" data-name="Caminho 2475" d="M195.148,151.113A5.494,5.494,0,0,0,194,154.107c-.07,1.684,2.013,5.284,2.013,5.284l4.851-3.038L198.5,150.67Z" transform="translate(-96.494 -82.056)" fill="#211a16"/>
    <path id="Caminho_2476" data-name="Caminho 2476" d="M195.736,159.184h-.03a.176.176,0,0,1-.1-.08c-.087-.146-2.106-3.66-2.036-5.374a5.594,5.594,0,0,1,1.178-3.068.176.176,0,0,1,.1-.057l3.364-.469a.166.166,0,0,1,.176.1l2.362,5.683a.17.17,0,0,1-.067.206l-4.848,3.038A.173.173,0,0,1,195.736,159.184Zm-.785-8.262a5.347,5.347,0,0,0-1.061,2.818c-.06,1.427,1.517,4.349,1.907,5.044l4.569-2.872-2.256-5.434Z" transform="translate(-96.208 -81.699)" fill="#211a16"/>
    <path id="Caminho_2477" data-name="Caminho 2477" d="M196.634,190.727s3.344-2.888,1.471-4.389a2.161,2.161,0,0,0-1.873-3.184s1-3.061-1.437-3.81-7.184,3.248-7.683,4.685,1.62,1.664,3.174,1c0,0-2.283,1.331-1.89,2.283.572,1.408,2.5.719,3.993.283,0,0-2.735,1.5-.935,2.9,1.381,1.075,4.605-1.075,4.605-1.075Z" transform="translate(-91.851 -101.202)" fill="#fff"/>
    <path id="Caminho_2478" data-name="Caminho 2478" d="M192.119,190.633A1.78,1.78,0,0,1,191,190.3a1.454,1.454,0,0,1-.665-1.261,2.18,2.18,0,0,1,.819-1.331c-1.331.366-2.745.6-3.258-.665-.263-.642.429-1.371,1.065-1.877a2.612,2.612,0,0,1-2.123-.356,1,1,0,0,1-.226-1.165c.522-1.5,5.387-5.557,7.889-4.788a2.329,2.329,0,0,1,1.441,1.155,3.969,3.969,0,0,1,.156,2.662,2.4,2.4,0,0,1,1.8,1.091,2.766,2.766,0,0,1,.057,2.179,1.557,1.557,0,0,1,.539,1.158c.03,1.551-2,3.327-2.1,3.4a.166.166,0,0,1-.146.037.173.173,0,0,1-.116-.093l-.5-1.128A7.841,7.841,0,0,1,192.119,190.633Zm-.077-3.537a.16.16,0,0,1,.153.1.166.166,0,0,1-.073.21s-1.391.775-1.461,1.664a1.141,1.141,0,0,0,.546.972c1.274,1,4.382-1.058,4.412-1.078a.16.16,0,0,1,.14-.023.173.173,0,0,1,.106.093l.482,1.095c.482-.456,1.837-1.843,1.813-2.995a1.231,1.231,0,0,0-.509-.982.17.17,0,0,1-.047-.2,2.568,2.568,0,0,0,0-2,2.2,2.2,0,0,0-1.744-.948.173.173,0,0,1-.12-.076.16.16,0,0,1-.017-.14,3.987,3.987,0,0,0-.083-2.612,1.977,1.977,0,0,0-1.244-1c-2.3-.705-6.988,3.181-7.477,4.578a.709.709,0,0,0,.136.812,3.044,3.044,0,0,0,2.815-.023.166.166,0,0,1,.15.3c-.559.333-2.1,1.407-1.82,2.076.479,1.171,2.073.7,3.48.279l.313-.093A.119.119,0,0,1,192.042,187.1Z" transform="translate(-91.506 -100.875)" fill="#211a16"/>
    <path id="Caminho_2479" data-name="Caminho 2479" d="M194.035,160.294s.083-2.792-2.283-1.75-5.959,3.527-4.093,5.164S193.473,162.423,194.035,160.294Z" transform="translate(-91.905 -87.16)" fill="#fff"/>
    <path id="Caminho_2480" data-name="Caminho 2480" d="M188.686,164.01a2.146,2.146,0,0,1-1.464-.519,1.474,1.474,0,0,1-.556-1.388c.26-1.687,3.181-3.391,4.692-4.053a1.725,1.725,0,0,1,1.75-.033c.8.536.765,1.883.765,1.94a.143.143,0,0,1,0,.037,6.727,6.727,0,0,1-4.126,3.846,3.676,3.676,0,0,1-1.061.17Zm3.683-5.873a2.219,2.219,0,0,0-.878.216c-1.687.742-4.276,2.369-4.5,3.8a1.148,1.148,0,0,0,.449,1.088,2.281,2.281,0,0,0,2.2.28,6.49,6.49,0,0,0,3.9-3.594c0-.153-.017-1.231-.619-1.634A.951.951,0,0,0,192.37,158.137Zm1.331,1.813Z" transform="translate(-91.577 -86.818)" fill="#211a16"/>
    <path id="Caminho_2481" data-name="Caminho 2481" d="M154.25,184.091s2.662-7.4,3.251-8.651c1-2.116,3.377-4.938,5.417-4.349s6.322,2.575,4.588,3.923c-1.581,1.234-5.264-.616-5.264-.616s.918,3.913-.938,6.106" transform="translate(-69.897 -95.693)" fill="#fff"/>
    <path id="Caminho_2482" data-name="Caminho 2482" d="M153.915,183.932a.157.157,0,0,1-.057,0,.163.163,0,0,1-.1-.213c.106-.3,2.662-7.42,3.258-8.668,1.048-2.213,3.48-5.058,5.613-4.442,1.484.429,4.828,1.833,5.094,3.211a1,1,0,0,1-.449,1c-1.391,1.081-4.206-.037-5.141-.459.18,1,.556,4.043-1.038,5.923a.166.166,0,1,1-.253-.213c1.78-2.106.912-5.923.9-5.963a.173.173,0,0,1,.06-.17.163.163,0,0,1,.176-.017c.037.017,3.607,1.79,5.088.636a.665.665,0,0,0,.333-.665c-.2-1.058-2.995-2.416-4.858-2.951-1.923-.559-4.252,2.213-5.221,4.262-.582,1.231-3.218,8.565-3.244,8.651a.17.17,0,0,1-.163.08Z" transform="translate(-69.562 -95.367)" fill="#211a16"/>
    <path id="Caminho_2483" data-name="Caminho 2483" d="M173,91.8S159.415,81.484,151.4,81.291a44.255,44.255,0,0,0-6.066.333c-4.742.539-9.506,1.531-12.81,1.664-6.558.25-11.466-1.853-11.476-8.7,0-5.856,2.762-6.931,8.6-8.541,2.888-.8,8.455-1.614,13.726-3.078a31.835,31.835,0,0,0,8.635-3.54c6.122-3.993,10.691-13.11,10.691-13.11Z" transform="translate(-47.789 -12.164)" fill="#fff"/>
    <path id="Caminho_2484" data-name="Caminho 2484" d="M172.67,91.6a.156.156,0,0,1-.1-.033c-.136-.1-13.642-10.288-21.5-10.475a43.767,43.767,0,0,0-6.043.333c-1.95.22-3.886.516-5.76.8a68.312,68.312,0,0,1-7.064.855c-4.266.16-7.407-.692-9.317-2.542a8.412,8.412,0,0,1-2.329-6.322c0-6.013,2.995-7.117,8.724-8.7,1.221-.333,2.911-.665,4.868-1.068,2.725-.546,5.813-1.165,8.858-2a31.267,31.267,0,0,0,8.588-3.52c6.013-3.926,10.588-12.954,10.631-13.043a.166.166,0,0,1,.17-.09.163.163,0,0,1,.143.126L172.837,91.4a.166.166,0,0,1-.073.176A.177.177,0,0,1,172.67,91.6ZM150.357,80.752h.722c3.351.08,8.022,1.88,13.882,5.347,3.537,2.1,6.455,4.2,7.447,4.925L162.3,46.436c-.972,1.813-5.184,9.273-10.538,12.771a31.711,31.711,0,0,1-8.681,3.56c-3.055.848-6.146,1.471-8.878,2.016-1.95.393-3.634.729-4.848,1.061-5.733,1.584-8.488,2.6-8.478,8.382a8.1,8.1,0,0,0,2.216,6.082c1.857,1.783,4.915,2.609,9.087,2.449a68.887,68.887,0,0,0,7.027-.852c1.877-.286,3.817-.582,5.77-.805a46.847,46.847,0,0,1,5.38-.349Z" transform="translate(-47.462 -11.814)" fill="#211a16"/>
    <path id="Caminho_2485" data-name="Caminho 2485" d="M146.39,114.827c-4.742.539-10.648,1.481-13.948,1.78-7.527.685-11.034-.915-11.476-7.746-.453-7.024,2.762-7.883,8.6-9.493,2.888-.8,8.455-1.614,13.726-3.078,0,0-2,3.677-1.108,10.169A14.431,14.431,0,0,0,146.39,114.827Z" transform="translate(-47.601 -45.681)" fill="#211a16"/>
    <path id="Caminho_2486" data-name="Caminho 2486" d="M129.278,116.661c-2.955,0-4.958-.556-6.322-1.727-1.491-1.274-2.276-3.281-2.472-6.322-.459-7.134,2.778-8.026,8.651-9.649h.067c1.221-.333,2.911-.665,4.868-1.068,2.725-.546,5.813-1.165,8.858-2a.163.163,0,0,1,.173.057.16.16,0,0,1,.017.183c-.02.037-1.947,3.71-1.088,10.065a14.414,14.414,0,0,0,4.149,8.269.163.163,0,0,1,.05.173.17.17,0,0,1-.14.116c-2.186.25-4.6.579-6.938.9-2.692.369-5.237.719-7.014.882C131.091,116.614,130.14,116.661,129.278,116.661Zm13.4-20.37c-2.941.8-5.9,1.394-8.531,1.92-1.95.393-3.633.729-4.848,1.061l-.067.02c-5.71,1.574-8.854,2.442-8.412,9.317.19,2.941.938,4.875,2.352,6.086,1.7,1.451,4.452,1.913,8.941,1.5,1.77-.16,4.326-.509,6.988-.878,2.213-.3,4.5-.616,6.592-.858a14.927,14.927,0,0,1-3.993-8.222,19.226,19.226,0,0,1,.972-9.949Z" transform="translate(-47.278 -45.415)" fill="#211a16"/>
    <path id="Caminho_2487" data-name="Caminho 2487" d="M257.272,81.527c-5.034.918-10.684-5.889-14.075-16.111a60.462,60.462,0,0,1-2.945-16.058c-.466-10.831,2.422-19.262,7.483-20.184,6.259-1.141,13.469,9.649,16.1,24.107S263.534,80.386,257.272,81.527Z" transform="translate(-127.538 -0.668)" fill="url(#linear-gradient)"/>
    <path id="Caminho_2488" data-name="Caminho 2488" d="M247.984,28.426c6.033,0,12.677,10.438,15.186,24.19,2.635,14.458-.306,27.1-6.568,28.243a5.015,5.015,0,0,1-.918.083c-4.791,0-9.982-6.592-13.157-16.194a60.461,60.461,0,0,1-2.945-16.058c-.466-10.831,2.422-19.262,7.483-20.184a5.014,5.014,0,0,1,.918-.083m0-.333h0a5.324,5.324,0,0,0-.978.09c-5.128.932-8.245,9.18-7.756,20.523a60.985,60.985,0,0,0,2.961,16.148c3.311,9.982,8.6,16.421,13.473,16.421a5.324,5.324,0,0,0,.978-.09c3.168-.576,5.613-3.906,6.884-9.38,1.251-5.377,1.234-12.212-.05-19.249a50.278,50.278,0,0,0-6.322-17.369c-2.865-4.532-6.142-7.091-9.187-7.091Z" transform="translate(-126.87)" fill="#211a16"/>
    <path id="Caminho_2489" data-name="Caminho 2489" d="M253.5,102.378l-10.208,3.68A60.463,60.463,0,0,1,240.35,90h11.5Z" transform="translate(-127.568 -41.458)" fill="#fff"/>
    <ellipse id="Elipse_102" data-name="Elipse 102" cx="2.905" cy="6.239" rx="2.905" ry="6.239" transform="translate(121.323 48.971) rotate(-7.83)" fill="#d1d3d4"/>
    <path id="Caminho_2490" data-name="Caminho 2490" d="M202.778,201.884a.166.166,0,0,1-.077-.316,12.162,12.162,0,0,1,3.284-1.141.17.17,0,0,1,.19.14.166.166,0,0,1-.14.19,12.085,12.085,0,0,0-3.181,1.108A.153.153,0,0,1,202.778,201.884Z" transform="translate(-102.25 -115.33)" fill="#231f20"/>
    <path id="Caminho_2491" data-name="Caminho 2491" d="M196.475,193.122a.17.17,0,0,1-.113-.047.163.163,0,0,1,0-.233,6.126,6.126,0,0,1,3.743-1.7.166.166,0,0,1,.18.15.163.163,0,0,1-.15.18,5.953,5.953,0,0,0-3.53,1.6A.173.173,0,0,1,196.475,193.122Z" transform="translate(-98.037 -109.117)" fill="#231f20"/>
    <path id="Caminho_2492" data-name="Caminho 2492" d="M213.743,208.667a.17.17,0,1,1-.067-.333l1.108-.472a.167.167,0,1,1,.133.306l-1.108.472A.159.159,0,0,1,213.743,208.667Z" transform="translate(-109.563 -120.294)" fill="#211a16"/>
    <path id="Caminho_2493" data-name="Caminho 2493" d="M145.935,224.562a27.737,27.737,0,0,0,2.233-1.89c.053-.18-10.315-9.982-10.315-9.982L132,216.373Z" transform="translate(-54.999 -123.652)" fill="#211a16"/>
    <path id="Caminho_2494" data-name="Caminho 2494" d="M145.568,224.365a.156.156,0,0,1-.083-.023l-13.952-8.189a.163.163,0,0,1,0-.283l5.876-3.7a.17.17,0,0,1,.2.02c10.438,9.889,10.391,10.039,10.352,10.169,0,.057-.07.226-2.289,1.973a.166.166,0,0,1-.1.033Zm-13.642-8.358,13.619,7.986c.875-.689,1.793-1.444,2.04-1.7-.665-.765-6.285-6.146-10.119-9.779Z" transform="translate(-54.632 -123.289)" fill="#211a16"/>
    <path id="Caminho_2495" data-name="Caminho 2495" d="M99.786,227.044l-13-10.9L61.9,231.9l29.887,4.149Z" transform="translate(-8.006 -125.955)" fill="#fff"/>
    <path id="Caminho_2496" data-name="Caminho 2496" d="M131.6,125.623a.173.173,0,0,1-.156-.106c-2.02-5.194-2.219-10.1-.569-13.812.033-.073.053-.123.063-.146a.15.15,0,0,1,.163-.15.176.176,0,0,1,.163.183.646.646,0,0,1-.086.25c-1.614,3.63-1.411,8.445.576,13.552a.17.17,0,0,1-.093.216A.13.13,0,0,1,131.6,125.623Z" transform="translate(-53.472 -55.788)" fill="#fff"/>
    <path id="Caminho_2500" data-name="Caminho 2500" d="M70.407,97.672a.17.17,0,0,1-.166-.153c-.333-3.66-3.327-6.322-6.033-7.61-3.467-1.634-10.135-3.6-14.111-2.848a.16.16,0,0,1-.183-.1.166.166,0,0,1,.057-.2c.333-.233.639-.463.968-.7,4.026-2.888,8.588-6.166,9.187-11.423.952-8.385-5.943-16-6.013-16.078a.17.17,0,0,1,0-.21.166.166,0,0,1,.2-.057c.087.037,8.831,3.687,17.549-1.141C80.45,52.4,80.153,43,80.15,42.9a.17.17,0,0,1,.093-.16.176.176,0,0,1,.183.027c.087.077,8.794,7.653,15.136,7.161a14.221,14.221,0,0,0,11.356-7.121.164.164,0,1,1,.3.143,14.531,14.531,0,0,1-11.646,7.3c-5.916.469-13.543-5.687-15.106-7.008-.04,1.817-.665,9.879-8.462,14.191a21.813,21.813,0,0,1-17.223,1.394c1.5,1.833,6.508,8.545,5.677,15.852-.616,5.407-5.241,8.728-9.317,11.646l-.416.3c4.093-.449,10.315,1.407,13.642,2.971,2.782,1.311,5.876,4.073,6.222,7.883a.166.166,0,0,1-.15.18Z" transform="translate(0 -9.758)" fill="#ffc400"/>
    <path id="Caminho_2501" data-name="Caminho 2501" d="M230.2,135.419a.17.17,0,0,1-.12-.05c-.063-.067-6.415-6.572-15.722-5.324a.163.163,0,0,1-.186-.143.166.166,0,0,1,.143-.186c8.175-1.1,14.115,3.68,15.639,5.058-.333-2.139-.789-10.5,9.649-17.768,5.939-4.133,15.519-2.708,19.831-.932-3.993-4.708-7.653-10.208-5.77-15.765,1.71-5.054,9.41-10.648,11.017-11.782-11.28-3.57-16.015-9.773-14.9-19.5a.167.167,0,0,1,.333.037c-1.1,9.649,3.66,15.745,14.99,19.242a.166.166,0,0,1,.043.3c-.093.063-9.333,6.382-11.167,11.806-1.9,5.623,2.063,11.247,6.192,16a.166.166,0,0,1-.2.26c-3.833-1.873-14.015-3.69-20.181.6-11.826,8.235-9.453,17.832-9.427,17.928a.166.166,0,0,1-.08.186.179.179,0,0,1-.09.027Z" transform="translate(-110.322 -27.695)" fill="#ffc400"/>
  </g>
</svg>
