<svg xmlns="http://www.w3.org/2000/svg" width="14" height="16" viewBox="0 0 14 16">
  <path id="salvar" d="M106.969,55.72a2.272,2.272,0,0,1-1.316-.422l-3.387-2.4-3.387,2.4a2.276,2.276,0,0,1-2.356.17,2.242,2.242,0,0,1-1.23-2V43.372a5.067,5.067,0,0,1,.232-2.136.879.879,0,0,1,.045-.109,2.53,2.53,0,0,1,1.111-1.1.827.827,0,0,1,.11-.045,5.176,5.176,0,0,1,2.15-.23h6.648a5.184,5.184,0,0,1,2.15.23.826.826,0,0,1,.11.045,2.53,2.53,0,0,1,1.111,1.1.875.875,0,0,1,.045.109,5.081,5.081,0,0,1,.232,2.136V53.466a2.242,2.242,0,0,1-1.23,2,2.287,2.287,0,0,1-1.039.251m-4.7-4.535a.777.777,0,0,1,.449.142l3.836,2.722a.722.722,0,0,0,1.142-.584V43.33a.8.8,0,0,1,0-.086,3.554,3.554,0,0,0-.14-1.468.994.994,0,0,0-.363-.361,3.652,3.652,0,0,0-1.478-.139.816.816,0,0,1-.087,0H98.9a.816.816,0,0,1-.087,0,3.656,3.656,0,0,0-1.477.139.994.994,0,0,0-.363.361,3.534,3.534,0,0,0-.14,1.467.813.813,0,0,1,0,.087V53.466a.7.7,0,0,0,.392.638.71.71,0,0,0,.75-.055l3.836-2.722a.777.777,0,0,1,.449-.142" transform="translate(-95.265 -39.72)" fill="#211a16"/>
</svg>
