<svg xmlns="http://www.w3.org/2000/svg" width="16" height="16" viewBox="0 0 16 16">
  <path id="telegram" d="M12.176,5.814h.012a.516.516,0,0,1,.3.094h0a.336.336,0,0,1,.113.214v0a1.356,1.356,0,0,1,.016.215c0,.035,0,.069,0,.1v0c-.12,1.258-.638,4.31-.9,5.719-.112.6-.331.8-.543.815-.462.043-.812-.3-1.259-.6-.7-.459-1.1-.745-1.775-1.193-.786-.517-.276-.8.171-1.266.117-.122,2.152-1.973,2.192-2.141a.161.161,0,0,0,0-.033.164.164,0,0,0-.04-.108h0a.18.18,0,0,0-.1-.028.193.193,0,0,0-.068.013h0q-.105.024-3.355,2.217a1.49,1.49,0,0,1-.86.318h0a5.6,5.6,0,0,1-1.275-.3l.039.013c-.5-.163-.894-.248-.86-.523Q4,9.12,4.569,8.9q3.478-1.516,4.639-2A12.02,12.02,0,0,1,12.092,5.83l.083-.016ZM8.886,1.025a8,8,0,1,0,.038,0H8.886Z" transform="translate(-0.905 -1.025)" fill="#211a16"/>
</svg>
