<svg xmlns="http://www.w3.org/2000/svg" width="14" height="16" viewBox="0 0 14 16">
  <path id="tiktok" d="M10.323,1.017C11.2,1,12.076,1.011,12.948,1a4.128,4.128,0,0,0,1.176,2.782h0a4.728,4.728,0,0,0,2.832,1.193h.015V7.665A7.2,7.2,0,0,1,14.106,7l.044.018a8.28,8.28,0,0,1-1.116-.638l.028.018c-.006,1.947.006,3.894-.013,5.834a5.053,5.053,0,0,1-.917,2.643l.011-.017A5.013,5.013,0,0,1,8.182,17H8.175c-.066,0-.144,0-.222,0a4.9,4.9,0,0,1-2.539-.7l.021.012a5.037,5.037,0,0,1-2.449-3.785l0-.022c-.013-.333-.02-.667-.006-.994A5.047,5.047,0,0,1,8.007,6.989a5.15,5.15,0,0,1,.862.073l-.03,0c.013.987-.027,1.974-.027,2.96a2.277,2.277,0,0,0-.763-.129,2.3,2.3,0,0,0-2.173,1.527l0,.016a2.573,2.573,0,0,0-.113.761,2.715,2.715,0,0,0,.02.325V12.5A2.284,2.284,0,0,0,8.034,14.42l.1,0h0A2.258,2.258,0,0,0,9.98,13.354l.005-.01a1.519,1.519,0,0,0,.275-.7v-.007c.067-1.194.04-2.38.047-3.574.006-2.687-.006-5.368.013-8.048Z" transform="translate(-2.97 -1.004)" fill="#211a16"/>
</svg>
