<svg xmlns="http://www.w3.org/2000/svg" width="16" height="16" viewBox="0 0 16 16">
  <path id="whatsapp" d="M68.188,9.822c-.195-.1-1.164-.575-1.344-.639s-.313-.1-.444.1-.507.639-.622.773-.23.148-.425.05a5.352,5.352,0,0,1-2.676-2.341c-.2-.348.2-.324.578-1.075a.363.363,0,0,0-.018-.345c-.05-.1-.444-1.067-.607-1.462s-.323-.331-.444-.338-.244-.007-.377-.007a.724.724,0,0,0-.525.244A2.213,2.213,0,0,0,60.6,6.425a3.863,3.863,0,0,0,.8,2.037,8.8,8.8,0,0,0,3.362,2.973,3.849,3.849,0,0,0,2.363.492,2.009,2.009,0,0,0,1.326-.938,1.679,1.679,0,0,0,.115-.938c-.047-.085-.179-.135-.374-.23m3.782-4.669a7.984,7.984,0,0,0-7.378-4.9h-.036A8,8,0,0,0,57.451,11.86v2.715a.821.821,0,0,0,.821.821h2.715a8.01,8.01,0,0,0,3.571.857H64.6a7.993,7.993,0,0,0,7.373-11.1m-2.7,7.822A6.6,6.6,0,0,1,64.6,14.9h-.036a6.658,6.658,0,0,1-3.089-.777l-.15-.08-2.512-.056V11.524l-.08-.15a6.664,6.664,0,0,1,1.144-7.8,6.586,6.586,0,0,1,4.689-1.963H64.6A6.647,6.647,0,0,1,69.27,12.975Z" transform="translate(-56.592 -0.253)" fill="#211a16"/>
</svg>
