<svg xmlns="http://www.w3.org/2000/svg" width="16" height="11" viewBox="0 0 16 11">
  <path id="youtube" d="M30.6,65.721a1.988,1.988,0,0,0-1.415-1.392A48.58,48.58,0,0,0,22.933,64a48.58,48.58,0,0,0-6.251.329,1.988,1.988,0,0,0-1.415,1.392,21.649,21.649,0,0,0,0,7.58,1.96,1.96,0,0,0,1.415,1.37A48.581,48.581,0,0,0,22.933,75a48.581,48.581,0,0,0,6.251-.329A1.96,1.96,0,0,0,30.6,73.3a21.649,21.649,0,0,0,0-7.58Zm-9.3,6.116V67.185l4.182,2.326L21.3,71.837Z" transform="translate(-14.933 -64)" fill="#211a16"/>
</svg>
